<svg version="1.1" xmlns="http://www.w3.org/2000/svg" xmlns:xlink="http://www.w3.org/1999/xlink" x="0px" y="0px" viewBox="0 0 1000 1000" enable-background="new 0 0 1000 1000" xml:space="preserve">
  <metadata> Svg Vector Icons : http://www.onlinewebfonts.com/icon </metadata>
  <g>
    <g transform="matrix(1 0 0 -1 0 960)">
      <path d="M461.4,132.8l-425,425.9C18.8,576.2,10,597,10,621.1c0,24.1,8.8,44.7,26.3,61.7l242.5,243.4c17,17,37.8,25.5,62.5,25.5c24.7,0,45.5-8.5,62.5-25.5l560.7-561.5c17-17,25.5-37.8,25.5-62.5c0-24.7-8.5-45.2-25.5-61.7L856.8,132.8H461.4z M379.1,340l249.1,249.9L347.9,870.3L98,621.1L379.1,340z M173.6-31.6V9.5c0,11.5,4,21.2,11.9,29.2c7.9,7.9,17.7,11.9,29.2,11.9h657.7c11.5,0,21.2-4,29.2-11.9c7.9-7.9,11.9-17.7,11.9-29.2v-41.1H173.6z" fill="#ffffff"/>
    </g>
  </g>
</svg>
